<svg xmlns="http://www.w3.org/2000/svg" version="1.1" xmlns:xlink="http://www.w3.org/1999/xlink" xmlns:svgjs="http://svgjs.com/svgjs" id="Pattern1034SvgRootPreview" width="100%" height="100%"><defs><pattern x="0" y="0" width="1" height="1" patternUnits="userSpaceOnUse" id="Pattern1034Layer1"><g id="PatternRootContent1"><g id="Pattern1034Layer1background"><rect width="1" height="1" id="Pattern1034Background1" class="fill_color_1" fill="#c0c0f0"></rect></g></g></pattern><pattern x="0" y="0" width="45" height="44" patternUnits="userSpaceOnUse" id="Pattern1034Layer2" patternTransform="matrix(0.5,0,0,0.5,0,0)"><g id="PatternRootContent2"><g id="Pattern1034Layer2Element1"><use xlink:href="#Pattern1034Element1" x="25" y="-31" transform="translate(42.5, -13.5) scale(1) translate(-42.5, 13.5) rotate(-90, 45, -11)"></use><use xlink:href="#Pattern1034Element1" x="-20" y="-31" transform="translate(-2.5, -13.5) scale(1) translate(2.5, 13.5) rotate(-90, 0, -11)"></use><use xlink:href="#Pattern1034Element1" x="2.5" y="-9" transform="translate(20, 8.5) scale(1) translate(-20, -8.5) rotate(90, 22.5, 11)"></use><use xlink:href="#Pattern1034Element1" x="-42.5" y="-9" transform="translate(-25, 8.5) scale(1) translate(25, -8.5) rotate(90, -22.5, 11)"></use><use xlink:href="#Pattern1034Element1" x="47.5" y="-9" transform="translate(65, 8.5) scale(1) translate(-65, -8.5) rotate(90, 67.5, 11)"></use><use xlink:href="#Pattern1034Element1" x="25" y="13" transform="translate(42.5, 30.5) scale(1) translate(-42.5, -30.5) rotate(-90, 45, 33)"></use><use xlink:href="#Pattern1034Element1" x="-20" y="13" transform="translate(-2.5, 30.5) scale(1) translate(2.5, -30.5) rotate(-90, 0, 33)"></use><use xlink:href="#Pattern1034Element1" x="2.5" y="35" transform="translate(20, 52.5) scale(1) translate(-20, -52.5) rotate(90, 22.5, 55)"></use><use xlink:href="#Pattern1034Element1" x="2.5" y="35" transform="translate(20, 52.5) scale(1) translate(-20, -52.5) rotate(90, 22.5, 55)"></use></g></g></pattern><symbol id="Pattern1034Element1"><polygon points="28.813,14.261 28.761,14.312 28.662,14.213 16.949,2.5 5.424,2.5 18.715,15.793 22.898,19.976 22.998,20.076 18.866,24.209 5.574,37.5 17.101,37.5 28.813,25.787 34.576,20.024" class="fill_color_2" fill="#7878a8"></polygon></symbol></defs><rect width="100%" height="100%" id="Pattern1034RctLayer1" fill="url(#Pattern1034Layer1)"></rect><rect width="100%" height="100%" id="Pattern1034RctLayer2" fill="url(#Pattern1034Layer2)"></rect></svg>