<svg xmlns="http://www.w3.org/2000/svg" version="1.1" xmlns:xlink="http://www.w3.org/1999/xlink" xmlns:svgjs="http://svgjs.com/svgjs" id="Pattern1032SvgRootPreview" width="100%" height="100%"><defs><pattern x="0" y="0" width="1" height="1" patternUnits="userSpaceOnUse" id="Pattern1032Layer1"><g id="PatternRootContent1"><g id="Pattern1032Layer1background"><rect width="1" height="1" id="Pattern1032Background1" class="fill_color_1" fill="#c8cce8"></rect></g></g></pattern><pattern x="0" y="0" width="32" height="54" patternUnits="userSpaceOnUse" id="Pattern1032Layer2" patternTransform="matrix(0.9,0,0,0.9,0,0)"><g id="PatternRootContent2"><g id="Pattern1032Layer2Element2"><use xlink:href="#Pattern1032Element2" x="10.544269561767578" y="-32.08121109008789" transform="translate(32, -13.5) scale(1) translate(-32, 13.5) rotate(0, 32, -13.5)"></use><use xlink:href="#Pattern1032Element2" x="-21.455730438232422" y="-32.08121109008789" transform="translate(0, -13.5) scale(1) translate(0, 13.5) rotate(0, 0, -13.5)"></use><use xlink:href="#Pattern1032Element2" x="-5.455730438232422" y="-5.081211090087891" transform="translate(16, 13.5) scale(1) translate(-16, -13.5) rotate(0, 16, 13.5)"></use><use xlink:href="#Pattern1032Element2" x="-37.45573043823242" y="-5.081211090087891" transform="translate(-16, 13.5) scale(1) translate(16, -13.5) rotate(0, -16, 13.5)"></use><use xlink:href="#Pattern1032Element2" x="26.544269561767578" y="-5.081211090087891" transform="translate(48, 13.5) scale(1) translate(-48, -13.5) rotate(0, 48, 13.5)"></use><use xlink:href="#Pattern1032Element2" x="10.544269561767578" y="21.91878890991211" transform="translate(32, 40.5) scale(1) translate(-32, -40.5) rotate(0, 32, 40.5)"></use><use xlink:href="#Pattern1032Element2" x="-21.455730438232422" y="21.91878890991211" transform="translate(0, 40.5) scale(1) translate(0, -40.5) rotate(0, 0, 40.5)"></use><use xlink:href="#Pattern1032Element2" x="-5.455730438232422" y="48.91878890991211" transform="translate(16, 67.5) scale(1) translate(-16, -67.5) rotate(0, 16, 67.5)"></use><use xlink:href="#Pattern1032Element2" x="-5.455730438232422" y="48.91878890991211" transform="translate(16, 67.5) scale(1) translate(-16, -67.5) rotate(0, 16, 67.5)"></use></g></g></pattern><symbol id="Pattern1032Element2"><g class="fill_color_3" fill="#dbe9ff"><path d="M21.456,2.367847442626953C20.956,2.368,20.456,2.558,20.046,2.9578473567962646L12.046,10.957847595214844C11.256,11.738,11.256,12.998,12.046,13.777847290039062L20.046,21.777847290039062C20.826,22.568,22.086,22.568,22.866,21.777847290039062L30.866,13.777847290039062C31.656,12.998,31.656,11.738,30.866,10.957847595214844L22.866,2.9578473567962646C22.456,2.558,21.956,2.368,21.456,2.367847442626953M21.456,4.367847442626953L29.456,12.367847442626953L21.456,20.367847442626953L13.456,12.367847442626953M20.456,7.367847442626953L20.456,13.367847442626953L22.456,13.367847442626953L22.456,7.367847442626953M20.456,15.367847442626953L20.456,17.367847442626953L22.456,17.367847442626953L22.456,15.367847442626953Z" transform="matrix(1,0,0,1,0,0)"></path><path d="M37.91,30.867847442626953C38.16,30.435,38.246,29.907,38.104,29.35175132751465L35.176,18.423547744750977C34.896,17.35,33.804,16.72,32.734,17.013547897338867L21.806,19.94175148010254C20.732,20.223,20.101,21.314,20.396,22.383943557739258L23.324,33.31214904785156C23.604,34.387,24.696,35.017,25.766,34.72214889526367L36.694,31.793943405151367C37.246,31.639,37.66,31.301,37.91,30.867847442626953M36.178,29.867847442626953L25.25,32.796051025390625L22.322,21.867847442626953L33.25,18.93964385986328M34.08,27.501821517944336L28.884,24.501821517944336L27.884,26.23387336730957L33.08,29.23387336730957M27.152,23.501821517944336L25.42,22.501821517944336L24.42,24.23387336730957L26.152,25.23387336730957Z" transform="matrix(1,0,0,1,0,0)"></path><path d="M5.001,30.86784553527832C5.251,31.301,5.666,31.639,6.217,31.793941497802734L17.145,34.722145080566406C18.216,35.017,19.307,34.387,19.588,33.3121452331543L22.516,22.383941650390625C22.81,21.314,22.18,20.223,21.106,19.941749572753906L10.178,17.013547897338867C9.107,16.72,8.016,17.35,7.735,18.423547744750977L4.807,29.35175132751465C4.666,29.907,4.751,30.435,5.001,30.86784553527832M6.733,29.86784553527832L9.662,18.93964195251465L20.59,21.86784553527832L17.662,32.796051025390625M9.831,29.233871459960938L15.028,26.233871459960938L14.028,24.501821517944336L8.831,27.501821517944336M16.76,25.233871459960938L18.492,24.233871459960938L17.492,22.501821517944336L15.76,23.501821517944336Z" transform="matrix(1,0,0,1,0,0)"></path></g></symbol></defs><rect width="100%" height="100%" id="Pattern1032RctLayer1" fill="url(#Pattern1032Layer1)"></rect><rect width="100%" height="100%" id="Pattern1032RctLayer2" fill="url(#Pattern1032Layer2)"></rect></svg>